<?xml version="1.0" encoding="UTF-8" standalone="no"?>
<!-- Generator: Adobe Illustrator 27.2.0, SVG Export Plug-In . SVG Version: 6.00 Build 0)  -->

<svg
   version="1.1"
   x="0px"
   y="0px"
   viewBox="0 0 806 696"
   xml:space="preserve"
   id="svg202"
   sodipodi:docname="LDW-Data-Icons-Transparent_3Crop.svg"
   width="806"
   height="696"
   inkscape:version="1.2.2 (1:1.2.2+202212051552+b0a8486541)"
   xmlns:inkscape="http://www.inkscape.org/namespaces/inkscape"
   xmlns:sodipodi="http://sodipodi.sourceforge.net/DTD/sodipodi-0.dtd"
   xmlns="http://www.w3.org/2000/svg"
   xmlns:svg="http://www.w3.org/2000/svg"><defs
   id="defs206" /><sodipodi:namedview
   id="namedview204"
   pagecolor="#505050"
   bordercolor="#ffffff"
   borderopacity="1"
   inkscape:showpageshadow="0"
   inkscape:pageopacity="0"
   inkscape:pagecheckerboard="1"
   inkscape:deskcolor="#505050"
   showgrid="false"
   inkscape:zoom="0.90972222"
   inkscape:cx="616.12214"
   inkscape:cy="450.1374"
   inkscape:window-width="2560"
   inkscape:window-height="1016"
   inkscape:window-x="0"
   inkscape:window-y="27"
   inkscape:window-maximized="1"
   inkscape:current-layer="svg202" />
<style
   type="text/css"
   id="style2">
	.st0{display:none;}
	.st1{display:inline;fill:#1C2434;}
	.st2{fill:none;stroke:#FFFFFF;stroke-width:2.5;stroke-miterlimit:10;}
	.st3{fill:none;stroke:#FFFFFF;stroke-width:1.5;stroke-miterlimit:10;}
	.st4{fill:#FFFFFF;}
	.st5{fill:#00C8BA;}
	.st6{fill:none;stroke:#00C8BA;stroke-width:4;stroke-miterlimit:10;}
	.st7{fill:none;stroke:#00C8BA;stroke-width:2.9363;stroke-miterlimit:10;}
	.st8{fill:#FFF170;}
	.st9{fill:#FF89FE;}
	.st10{fill:none;stroke:#FFFFFF;stroke-width:1.75;stroke-miterlimit:10;}
	.st11{fill:none;stroke:#FFFFFF;stroke-width:2;stroke-miterlimit:10;}
	.st12{fill:none;stroke:#00C8BA;stroke-width:3.5;stroke-miterlimit:10;}
	.st13{fill:#1C2434;stroke:#00C8BA;stroke-width:4;stroke-miterlimit:10;}
	.st14{opacity:0.5;}
	.st15{fill:none;stroke:#00C8BA;stroke-width:2.772;stroke-miterlimit:10;}
	.st16{fill:none;stroke:#5BB9BE;stroke-width:2;stroke-miterlimit:10;}
	.st17{fill:none;stroke:#00C8BA;stroke-width:2;stroke-miterlimit:10;}
	.st18{fill:#1B2433;stroke:#00C8BA;stroke-miterlimit:10;}
	.st19{fill:none;stroke:#00C8BA;stroke-width:2.047;stroke-miterlimit:10;}
	.st20{fill-rule:evenodd;clip-rule:evenodd;fill:none;stroke:#00C8BA;stroke-width:2;stroke-miterlimit:10;}
	.st21{fill-rule:evenodd;clip-rule:evenodd;fill:none;stroke:#00C8BA;stroke-width:4;stroke-miterlimit:10;}
	.st22{fill:none;stroke:#FFFFFF;stroke-width:2.0649;stroke-miterlimit:10;}
	.st23{fill:none;stroke:#FFFFFF;stroke-width:2.8504;stroke-miterlimit:10;}
	.st24{enable-background:new    ;}
	.st25{fill:none;stroke:#00C8BA;stroke-width:1.8355;stroke-miterlimit:10;}
	.st26{fill:none;stroke:#00C8BA;stroke-width:4.6008;stroke-miterlimit:10;}
	.st27{fill:none;stroke:#00C8BA;stroke-width:4;stroke-linecap:round;stroke-miterlimit:10;}
</style>
<g
   id="Background"
   class="st0">
	<rect
   x="-0.40000001"
   class="st1"
   width="1441.3"
   height="900"
   id="rect4"
   y="0" />
</g>
<g
   id="Artwork"
   transform="translate(-279.39999,-89.900002)">
	<g
   id="g9">
		<rect
   x="1009"
   y="327.29999"
   class="st5"
   width="16.299999"
   height="16.299999"
   id="rect7" />
	</g>
	<g
   id="g13">
		<rect
   x="434.89999"
   y="674.70001"
   class="st9"
   width="8.1000004"
   height="8.1000004"
   id="rect11" />
	</g>
	<g
   id="g17">
		<rect
   x="396.89999"
   y="202.2"
   class="st9"
   width="8.1000004"
   height="8.1000004"
   id="rect15" />
	</g>
	<g
   id="g21">
		<rect
   x="279.39999"
   y="755.20001"
   class="st5"
   width="16.9"
   height="16.9"
   id="rect19" />
	</g>
	<g
   id="g25">
		<rect
   x="1051.3"
   y="599.29999"
   class="st8"
   width="16.299999"
   height="16.299999"
   id="rect23" />
	</g>
	<g
   id="g29">
		<rect
   x="518.20001"
   y="275.79999"
   class="st4"
   width="8.8000002"
   height="8.8000002"
   id="rect27" />
	</g>
	<g
   id="g33">
		<rect
   x="1075.9"
   y="447.39999"
   class="st4"
   width="8.8000002"
   height="8.8000002"
   id="rect31" />
	</g>
	<g
   id="g199">
		<g
   id="g117">
			<polygon
   class="st2"
   points="679.9,644.6 518.8,563.4 603,510.6 "
   id="polygon35" />
			<polyline
   class="st2"
   points="564.3,384.8 349.8,387.8 627.4,306.2    "
   id="polyline37" />
			<polyline
   class="st2"
   points="518.8,565 349.8,387.8 601.7,505.6 567.1,385.1 564.3,384.8    "
   id="polyline39" />
			<line
   class="st2"
   x1="567.09998"
   y1="385.10001"
   x2="624.40002"
   y2="305.70001"
   id="line41" />
			<polyline
   class="st2"
   points="988.1,723.2 838.5,643.9 863.9,597.6    "
   id="polyline43" />
			<polyline
   class="st2"
   points="803.8,759 988.9,724.5 863.9,597.6    "
   id="polyline45" />
			<polyline
   class="st2"
   points="679.9,644.6 602,692.5 688,742    "
   id="polyline47" />
			<line
   class="st2"
   x1="636.59998"
   y1="166.89999"
   x2="774.90002"
   y2="157.60001"
   id="line49" />
			<polyline
   class="st2"
   points="631.5,293 636.8,96.3 844.3,151.3    "
   id="polyline51" />
			<g
   id="g115">
				<g
   id="g109">
					<polyline
   class="st6"
   points="870.9,176.2 774.9,157.6 746.1,233.8      "
   id="polyline53" />
					<polyline
   class="st6"
   points="749.1,227.1 616.7,327.1 640.3,440.3      "
   id="polyline55" />
					<line
   class="st6"
   x1="688.5"
   y1="306.29999"
   x2="712.70001"
   y2="195.3"
   id="line57" />
					<g
   id="g105">
						<g
   id="g63">
							<g
   id="g61">
								<path
   class="st6"
   d="m 681,646.8 c -3.9,6.8 -5.1,14.1 -3.6,21.4 2.3,11 10.7,21 24.2,28.8 16.3,9.4 37.7,14.1 59.1,14.1 21.4,0 42.8,-4.7 59.1,-14.1 13.3,-7.7 21.6,-17.5 24.1,-28.3 1.9,-8.4 0.1,-17 -5.3,-24.8 l -4.8,-6.4"
   id="path59" />
							</g>
						</g>
						<g
   id="g69">
							<g
   id="g67">
								<path
   class="st6"
   d="m 844.5,664.8 c 0,0 0,1.6 0,13.8 0,13.2 -8.8,25.5 -24.8,34.7 -16.3,9.4 -37.7,14.1 -59.1,14.1 -21.4,0 -42.8,-4.7 -59.1,-14.1 -16.5,-9.5 -25.3,-22.2 -24.8,-35.7 0.4,-10.9 0,-12.5 0,-12.6"
   id="path65" />
							</g>
						</g>
						<g
   id="g77">
							<g
   id="g75">
								<g
   id="g73">
									<path
   class="st6"
   d="m 842.6,689.3 c 6.2,16.5 -2.3,33.5 -22.8,45.3 -16.3,9.4 -37.7,14.1 -59.1,14.1 -21.4,0 -42.8,-4.7 -59.1,-14.1 -20.5,-11.9 -29.1,-28.8 -22.8,-45.3"
   id="path71" />
								</g>
							</g>
						</g>
						<g
   id="g83">
							<g
   id="g81">
								<path
   class="st6"
   d="m 844.5,696.9 c 0,0 0,6.7 0,19 0,13.2 -8.8,25.5 -24.8,34.7 -16.3,9.4 -37.7,14.1 -59.1,14.1 -21.4,0 -42.8,-4.7 -59.1,-14.1 -16.5,-9.5 -25.3,-22.2 -24.8,-35.8 0.4,-11.7 0,-16.1 0,-16.1"
   id="path79" />
							</g>
						</g>
						<g
   id="g89">
							<g
   id="g87">
								<path
   class="st6"
   d="m 715.7,756.4 1.6,3.3 c 2.2,5.4 6,10.1 11.3,14.1 8.8,6.7 20.3,10 31.8,10 11.5,0 23.1,-3.3 31.8,-10 5.4,-4.1 9.4,-9.3 11.6,-14.9 l 0.7,-2"
   id="path85" />
							</g>
						</g>
						<path
   class="st6"
   d="m 730,652.9 133.3,-78.5 c 0.6,-0.4 1.4,0.1 1.4,0.8 l -0.8,22.3 c -0.1,2 -1.1,3.7 -2.8,4.7 l -127.6,74.4 c -1.7,1 -3.8,-0.3 -3.8,-2.2 z"
   id="path91" />
						<line
   class="st6"
   x1="750.70001"
   y1="709.29999"
   x2="750.70001"
   y2="667.59998"
   id="line93" />
						<line
   class="st6"
   x1="834.5"
   y1="619.29999"
   x2="833.5"
   y2="686.09998"
   id="line95" />
						<path
   class="st6"
   d="m 730.1,675.9 -48.7,-28.4 v -22.4 c 0,-0.3 0.4,-0.6 0.7,-0.4 l 48.1,28"
   id="path97" />
						<line
   class="st6"
   x1="689.5"
   y1="688.29999"
   x2="689.70001"
   y2="652.09998"
   id="line99" />
						<path
   class="st6"
   d="m 862.5,574.6 c 0,0 -0.5,-54.3 32.3,-109.4 32.8,-55.1 74.5,-136.3 53.1,-220.7 -21.4,-84.4 -108.9,-86.4 -178.3,-31.3 -69.4,55.1 -152.9,185 -126,298.7 9.5,39.6 28.9,50.3 36.4,55.1 7.5,4.8 49.9,27.3 51.1,85.2"
   id="path101" />
						<path
   class="st6"
   d="m 902.6,184.2 c 0,0 -20.5,-13 -51.5,-29.3 -31,-16.3 -104.3,-3.8 -172.9,74.5 -68.6,78.3 -104.7,180.1 -79.6,265.1 5.7,19.3 15.3,37.4 27.8,53.2 12.6,16 28.9,29.1 40.4,46.1 6.5,9.6 11.6,20.2 14.6,31.4"
   id="path103" />
					</g>
					<polyline
   class="st6"
   points="654.4,540.8 593.7,456.9 685.8,311.2      "
   id="polyline107" />
				</g>
				<line
   class="st27"
   x1="785.40002"
   y1="618.40002"
   x2="743.79999"
   y2="514.09998"
   id="line111" />
				<line
   class="st27"
   x1="805"
   y1="608.29999"
   x2="821"
   y2="456.70001"
   id="line113" />
			</g>
		</g>
		<g
   id="g121">
			<rect
   x="333.60001"
   y="378.60001"
   class="st4"
   width="19.1"
   height="19.1"
   id="rect119" />
		</g>
		<g
   id="g125">
			<rect
   x="626.5"
   y="157.10001"
   class="st4"
   width="19.1"
   height="19.1"
   id="rect123" />
		</g>
		<g
   id="g129">
			<rect
   x="514.70001"
   y="559.29999"
   class="st4"
   width="8.1999998"
   height="8.1999998"
   id="rect127" />
		</g>
		<g
   id="g133">
			<rect
   x="672.20001"
   y="637.70001"
   class="st4"
   width="8.1999998"
   height="8.1999998"
   id="rect131" />
		</g>
		<g
   id="g137">
			<rect
   x="595.5"
   y="686.09998"
   class="st4"
   width="12.8"
   height="12.8"
   id="rect135" />
		</g>
		<g
   id="g141">
			<rect
   x="982.5"
   y="718.09998"
   class="st4"
   width="12.8"
   height="12.8"
   id="rect139" />
		</g>
		<g
   id="g145">
			<rect
   x="630.40002"
   y="89.900002"
   class="st4"
   width="12.8"
   height="12.8"
   id="rect143" />
		</g>
		<g
   id="g149">
			<rect
   x="561.5"
   y="379.39999"
   class="st4"
   width="12.8"
   height="12.8"
   id="rect147" />
		</g>
		<g
   id="g153">
			<rect
   x="593.79999"
   y="500.20001"
   class="st5"
   width="12.8"
   height="12.8"
   id="rect151" />
		</g>
		<g
   id="g157">
			<rect
   x="617.70001"
   y="289.70001"
   class="st5"
   width="21.5"
   height="21.5"
   id="rect155" />
		</g>
		<g
   id="g161">
			<rect
   x="723.20001"
   y="645"
   class="st5"
   width="12.8"
   height="12.8"
   id="rect159" />
		</g>
		<g
   id="g165">
			<rect
   x="797.29999"
   y="752"
   class="st5"
   width="12.8"
   height="12.8"
   id="rect163" />
		</g>
		<g
   id="g169">
			<rect
   x="832.09998"
   y="637.5"
   class="st5"
   width="12.8"
   height="12.8"
   id="rect167" />
		</g>
		<g
   id="g173">
			<rect
   x="857.5"
   y="591.20001"
   class="st5"
   width="12.8"
   height="12.8"
   id="rect171" />
		</g>
		<g
   id="g177">
			<rect
   x="768.59998"
   y="152.3"
   class="st5"
   width="12.8"
   height="12.8"
   id="rect175" />
		</g>
		<g
   id="g181">
			<rect
   x="682.29999"
   y="305.39999"
   class="st5"
   width="12.8"
   height="12.8"
   id="rect179" />
		</g>
		<g
   id="g185">
			<rect
   x="839.79999"
   y="147.5"
   class="st5"
   width="8.6999998"
   height="8.6999998"
   id="rect183" />
		</g>
		<g
   id="g189">
			<rect
   x="740.5"
   y="224.10001"
   class="st5"
   width="13.7"
   height="13.7"
   id="rect187" />
		</g>
		<g
   id="g193">
			<rect
   x="633.5"
   y="431.89999"
   class="st5"
   width="13.1"
   height="13.1"
   id="rect191" />
		</g>
		<g
   id="g197">
			<rect
   x="684.70001"
   y="738.79999"
   class="st5"
   width="8.6999998"
   height="8.6999998"
   id="rect195" />
		</g>
	</g>
</g>
</svg>
