<?xml version="1.0" encoding="utf-8"?>
<!-- Generator: Adobe Illustrator 27.2.0, SVG Export Plug-In . SVG Version: 6.00 Build 0)  -->
<svg version="1.1" xmlns="http://www.w3.org/2000/svg" xmlns:xlink="http://www.w3.org/1999/xlink" x="0px" y="0px"
	 viewBox="320 150 900 562" style="enable-background:new 0 0 1440 900;" xml:space="preserve">
<style type="text/css">
	.st0{fill:none;stroke:#1C2434;stroke-width:2.5;stroke-miterlimit:10;}
	.st1{fill:none;stroke:#1C2434;stroke-width:1.5;stroke-miterlimit:10;}
	.st2{fill:#FFFFFF;}
	.st3{fill:#1C2434;}
	.st4{fill:#00C8BA;}
	.st5{fill:none;stroke:#1C2434;stroke-width:4;stroke-miterlimit:10;}
	.st6{fill:none;stroke:#00C8BA;stroke-width:2.9363;stroke-miterlimit:10;}
	.st7{fill:none;stroke:#FFFFFF;stroke-width:1.5;stroke-miterlimit:10;}
	.st8{fill:none;stroke:#FFFFFF;stroke-width:1.75;stroke-miterlimit:10;}
	.st9{fill:none;stroke:#FFFFFF;stroke-width:2;stroke-miterlimit:10;}
	.st10{fill:none;stroke:#00C8BA;stroke-width:3.5;stroke-miterlimit:10;}
	.st11{fill:#1C2434;stroke:#1C2434;stroke-width:4;stroke-miterlimit:10;}
	.st12{opacity:0.5;}
	.st13{fill:none;stroke:#1C2434;stroke-width:3.5;stroke-miterlimit:10;}
	.st14{fill:none;stroke:#00C8BA;stroke-width:2.772;stroke-miterlimit:10;}
	.st15{fill:none;stroke:#5BB9BE;stroke-width:2;stroke-miterlimit:10;}
	.st16{fill:none;stroke:#00C8BA;stroke-width:2;stroke-miterlimit:10;}
	.st17{fill:#1B2433;stroke:#1C2434;stroke-miterlimit:10;}
	.st18{fill:none;stroke:#1C2434;stroke-width:2;stroke-miterlimit:10;}
	.st19{fill:none;stroke:#00C8BA;stroke-width:2.047;stroke-miterlimit:10;}
	.st20{fill-rule:evenodd;clip-rule:evenodd;fill:none;stroke:#00C8BA;stroke-width:2;stroke-miterlimit:10;}
	.st21{fill-rule:evenodd;clip-rule:evenodd;fill:none;stroke:#1C2434;stroke-width:4;stroke-miterlimit:10;}
	.st22{fill:none;stroke:#FFFFFF;stroke-width:2.0649;stroke-miterlimit:10;}
	.st23{fill:none;stroke:#FFFFFF;stroke-width:2.8504;stroke-miterlimit:10;}
	.st24{enable-background:new    ;}
	.st25{fill:none;stroke:#00C8BA;stroke-width:1.8355;stroke-miterlimit:10;}
	.st26{fill:none;stroke:#1C2434;stroke-width:1.8355;stroke-miterlimit:10;}
	.st27{fill:none;stroke:#00C8BA;stroke-width:4.6008;stroke-miterlimit:10;}
	.st28{fill:none;stroke:#1C2434;stroke-width:4;stroke-linecap:round;stroke-miterlimit:10;}
</style>
<g id="Background">
</g>
<g id="Artwork">
	<g>
		<rect x="1009" y="327.3" class="st3" width="16.3" height="16.3"/>
	</g>
	<g>
		<rect x="434.9" y="674.7" class="st3" width="8.1" height="8.1"/>
	</g>
	<g>
		<rect x="396.9" y="202.2" class="st3" width="8.1" height="8.1"/>
	</g>
	<g>
		<rect x="279.4" y="755.2" class="st3" width="16.9" height="16.9"/>
	</g>
	<g>
		<rect x="1051.3" y="599.3" class="st3" width="16.3" height="16.3"/>
	</g>
	<g>
		<rect x="518.2" y="275.8" class="st3" width="8.8" height="8.8"/>
	</g>
	<g>
		<rect x="1075.9" y="447.4" class="st3" width="8.8" height="8.8"/>
	</g>
	<g>
		<g>
			<polygon class="st0" points="518.8,563.4 603,510.6 679.9,644.6 			"/>
			<polyline class="st0" points="564.3,384.8 349.8,387.8 627.4,306.2 			"/>
			<polyline class="st0" points="518.8,565 349.8,387.8 601.7,505.6 567.1,385.1 564.3,384.8 			"/>
			<line class="st0" x1="567.1" y1="385.1" x2="624.4" y2="305.7"/>
			<polyline class="st0" points="988.1,723.2 838.5,643.9 863.9,597.6 			"/>
			<polyline class="st0" points="803.8,759 988.9,724.5 863.9,597.6 			"/>
			<polyline class="st0" points="679.9,644.6 602,692.5 688,742 			"/>
			<line class="st0" x1="636.6" y1="166.9" x2="774.9" y2="157.6"/>
			<polyline class="st0" points="631.5,293 636.8,96.3 844.3,151.3 			"/>
			<g>
				<g>
					<polyline class="st5" points="870.9,176.2 774.9,157.6 746.1,233.8 					"/>
					<polyline class="st5" points="749.1,227.1 616.7,327.1 640.3,440.3 					"/>
					<line class="st5" x1="688.5" y1="306.3" x2="712.7" y2="195.3"/>
					<g>
						<g>
							<g>
								<path class="st5" d="M681,646.8c-3.9,6.8-5.1,14.1-3.6,21.4c2.3,11,10.7,21,24.2,28.8c16.3,9.4,37.7,14.1,59.1,14.1
									c21.4,0,42.8-4.7,59.1-14.1c13.3-7.7,21.6-17.5,24.1-28.3c1.9-8.4,0.1-17-5.3-24.8l-4.8-6.4"/>
							</g>
						</g>
						<g>
							<g>
								<path class="st5" d="M844.5,664.8c0,0,0,1.6,0,13.8c0,13.2-8.8,25.5-24.8,34.7c-16.3,9.4-37.7,14.1-59.1,14.1
									c-21.4,0-42.8-4.7-59.1-14.1c-16.5-9.5-25.3-22.2-24.8-35.7c0.4-10.9,0-12.5,0-12.6"/>
							</g>
						</g>
						<g>
							<g>
								<g>
									<path class="st5" d="M842.6,689.3c6.2,16.5-2.3,33.5-22.8,45.3c-16.3,9.4-37.7,14.1-59.1,14.1c-21.4,0-42.8-4.7-59.1-14.1
										c-20.5-11.9-29.1-28.8-22.8-45.3"/>
								</g>
							</g>
						</g>
						<g>
							<g>
								<path class="st5" d="M844.5,696.9c0,0,0,6.7,0,19c0,13.2-8.8,25.5-24.8,34.7c-16.3,9.4-37.7,14.1-59.1,14.1
									c-21.4,0-42.8-4.7-59.1-14.1c-16.5-9.5-25.3-22.2-24.8-35.8c0.4-11.7,0-16.1,0-16.1"/>
							</g>
						</g>
						<g>
							<g>
								<path class="st5" d="M715.7,756.4l1.6,3.3c2.2,5.4,6,10.1,11.3,14.1c8.8,6.7,20.3,10,31.8,10c11.5,0,23.1-3.3,31.8-10
									c5.4-4.1,9.4-9.3,11.6-14.9l0.7-2"/>
							</g>
						</g>
						<path class="st5" d="M730,652.9l133.3-78.5c0.6-0.4,1.4,0.1,1.4,0.8l-0.8,22.3c-0.1,2-1.1,3.7-2.8,4.7l-127.6,74.4
							c-1.7,1-3.8-0.3-3.8-2.2L730,652.9z"/>
						<line class="st5" x1="750.7" y1="709.3" x2="750.7" y2="667.6"/>
						<line class="st5" x1="834.5" y1="619.3" x2="833.5" y2="686.1"/>
						<path class="st5" d="M730.1,675.9l-48.7-28.4v-22.4c0-0.3,0.4-0.6,0.7-0.4l48.1,28"/>
						<line class="st5" x1="689.5" y1="688.3" x2="689.7" y2="652.1"/>
						<path class="st5" d="M862.5,574.6c0,0-0.5-54.3,32.3-109.4s74.5-136.3,53.1-220.7c-21.4-84.4-108.9-86.4-178.3-31.3
							s-152.9,185-126,298.7c9.5,39.6,28.9,50.3,36.4,55.1s49.9,27.3,51.1,85.2"/>
						<path class="st5" d="M902.6,184.2c0,0-20.5-13-51.5-29.3s-104.3-3.8-172.9,74.5s-104.7,180.1-79.6,265.1
							c5.7,19.3,15.3,37.4,27.8,53.2c12.6,16,28.9,29.1,40.4,46.1c6.5,9.6,11.6,20.2,14.6,31.4"/>
					</g>
					<polyline class="st5" points="654.4,540.8 593.7,456.9 685.8,311.2 					"/>
				</g>
				<line class="st28" x1="785.4" y1="618.4" x2="743.8" y2="514.1"/>
				<line class="st28" x1="805" y1="608.3" x2="821" y2="456.7"/>
			</g>
		</g>
		<g>
			<rect x="333.6" y="378.6" class="st3" width="19.1" height="19.1"/>
		</g>
		<g>
			<rect x="626.5" y="157.1" class="st3" width="19.1" height="19.1"/>
		</g>
		<g>
			<rect x="514.7" y="559.3" class="st3" width="8.2" height="8.2"/>
		</g>
		<g>
			<rect x="672.2" y="637.7" class="st3" width="8.2" height="8.2"/>
		</g>
		<g>
			<rect x="595.5" y="686.1" class="st3" width="12.8" height="12.8"/>
		</g>
		<g>
			<rect x="982.5" y="718.1" class="st3" width="12.8" height="12.8"/>
		</g>
		<g>
			<rect x="630.4" y="89.9" class="st3" width="12.8" height="12.8"/>
		</g>
		<g>
			<rect x="561.5" y="379.4" class="st3" width="12.8" height="12.8"/>
		</g>
		<g>
			<rect x="593.8" y="500.2" class="st3" width="12.8" height="12.8"/>
		</g>
		<g>
			<rect x="617.7" y="289.7" class="st3" width="21.5" height="21.5"/>
		</g>
		<g>
			<rect x="723.2" y="645" class="st3" width="12.8" height="12.8"/>
		</g>
		<g>
			<rect x="797.3" y="752" class="st3" width="12.8" height="12.8"/>
		</g>
		<g>
			<rect x="832.1" y="637.5" class="st3" width="12.8" height="12.8"/>
		</g>
		<g>
			<rect x="857.5" y="591.2" class="st3" width="12.8" height="12.8"/>
		</g>
		<g>
			<rect x="768.6" y="152.3" class="st3" width="12.8" height="12.8"/>
		</g>
		<g>
			<rect x="682.3" y="305.4" class="st3" width="12.8" height="12.8"/>
		</g>
		<g>
			<rect x="839.8" y="147.5" class="st3" width="8.7" height="8.7"/>
		</g>
		<g>
			<rect x="740.5" y="224.1" class="st3" width="13.7" height="13.7"/>
		</g>
		<g>
			<rect x="633.5" y="431.9" class="st3" width="13.1" height="13.1"/>
		</g>
		<g>
			<rect x="684.7" y="738.8" class="st3" width="8.7" height="8.7"/>
		</g>
	</g>
</g>
</svg>
