<?xml version="1.0" encoding="UTF-8" standalone="no"?>
<!-- Generator: Adobe Illustrator 27.2.0, SVG Export Plug-In . SVG Version: 6.00 Build 0)  -->

<svg
   version="1.1"
   x="0px"
   y="0px"
   viewBox="0 0 748 640"
   xml:space="preserve"
   id="svg160"
   sodipodi:docname="LDW-Dark_6Crop.svg"
   width="748"
   height="640"
   inkscape:version="1.2.2 (1:1.2.2+202212051552+b0a8486541)"
   xmlns:inkscape="http://www.inkscape.org/namespaces/inkscape"
   xmlns:sodipodi="http://sodipodi.sourceforge.net/DTD/sodipodi-0.dtd"
   xmlns="http://www.w3.org/2000/svg"
   xmlns:svg="http://www.w3.org/2000/svg"><defs
   id="defs164" /><sodipodi:namedview
   id="namedview162"
   pagecolor="#505050"
   bordercolor="#ffffff"
   borderopacity="1"
   inkscape:showpageshadow="0"
   inkscape:pageopacity="0"
   inkscape:pagecheckerboard="1"
   inkscape:deskcolor="#505050"
   showgrid="false"
   inkscape:zoom="0.90972222"
   inkscape:cx="616.12214"
   inkscape:cy="450.1374"
   inkscape:window-width="2560"
   inkscape:window-height="1016"
   inkscape:window-x="0"
   inkscape:window-y="27"
   inkscape:window-maximized="1"
   inkscape:current-layer="svg160" />
<style
   type="text/css"
   id="style2">
	.st0{fill:none;stroke:#1C2434;stroke-width:2.5;stroke-miterlimit:10;}
	.st1{fill:none;stroke:#1C2434;stroke-width:1.5;stroke-miterlimit:10;}
	.st2{fill:#FFFFFF;}
	.st3{fill:#1C2434;}
	.st4{fill:#00C8BA;}
	.st5{fill:none;stroke:#1C2434;stroke-width:4;stroke-miterlimit:10;}
	.st6{fill:none;stroke:#00C8BA;stroke-width:2.9363;stroke-miterlimit:10;}
	.st7{fill:none;stroke:#FFFFFF;stroke-width:1.5;stroke-miterlimit:10;}
	.st8{fill:none;stroke:#FFFFFF;stroke-width:1.75;stroke-miterlimit:10;}
	.st9{fill:none;stroke:#FFFFFF;stroke-width:2;stroke-miterlimit:10;}
	.st10{fill:none;stroke:#00C8BA;stroke-width:3.5;stroke-miterlimit:10;}
	.st11{fill:#1C2434;stroke:#1C2434;stroke-width:4;stroke-miterlimit:10;}
	.st12{opacity:0.5;}
	.st13{fill:none;stroke:#1C2434;stroke-width:3.5;stroke-miterlimit:10;}
	.st14{fill:none;stroke:#00C8BA;stroke-width:2.772;stroke-miterlimit:10;}
	.st15{fill:none;stroke:#5BB9BE;stroke-width:2;stroke-miterlimit:10;}
	.st16{fill:none;stroke:#00C8BA;stroke-width:2;stroke-miterlimit:10;}
	.st17{fill:#1B2433;stroke:#1C2434;stroke-miterlimit:10;}
	.st18{fill:none;stroke:#1C2434;stroke-width:2;stroke-miterlimit:10;}
	.st19{fill:none;stroke:#00C8BA;stroke-width:2.047;stroke-miterlimit:10;}
	.st20{fill-rule:evenodd;clip-rule:evenodd;fill:none;stroke:#00C8BA;stroke-width:2;stroke-miterlimit:10;}
	.st21{fill-rule:evenodd;clip-rule:evenodd;fill:none;stroke:#1C2434;stroke-width:4;stroke-miterlimit:10;}
	.st22{fill:none;stroke:#FFFFFF;stroke-width:2.0649;stroke-miterlimit:10;}
	.st23{fill:none;stroke:#FFFFFF;stroke-width:2.8504;stroke-miterlimit:10;}
	.st24{enable-background:new    ;}
	.st25{fill:none;stroke:#00C8BA;stroke-width:1.8355;stroke-miterlimit:10;}
	.st26{fill:none;stroke:#1C2434;stroke-width:1.8355;stroke-miterlimit:10;}
	.st27{fill:none;stroke:#00C8BA;stroke-width:4.6008;stroke-miterlimit:10;}
	.st28{fill:none;stroke:#1C2434;stroke-width:4;stroke-linecap:round;stroke-miterlimit:10;}
</style>
<g
   id="Background">
</g>
<g
   id="Artwork"
   transform="translate(-378.39999,-127.4)">
	<g
   id="g153">
		<g
   id="g7">
			<rect
   x="625.90002"
   y="237.7"
   class="st3"
   width="10.4"
   height="10.4"
   id="rect5" />
		</g>
		<g
   id="g11">
			<rect
   x="1115.8"
   y="416.20001"
   class="st3"
   width="10.4"
   height="10.4"
   id="rect9" />
		</g>
		<g
   id="g15">
			<rect
   x="378.39999"
   y="582"
   class="st3"
   width="10.4"
   height="10.4"
   id="rect13" />
		</g>
		<g
   id="g19">
			<rect
   x="868.5"
   y="168.10001"
   class="st3"
   width="10.4"
   height="10.4"
   id="rect17" />
		</g>
		<g
   id="g23">
			<rect
   x="552.20001"
   y="291.29999"
   class="st3"
   width="25.4"
   height="25.4"
   id="rect21" />
		</g>
		<g
   id="g27">
			<rect
   x="1085.7"
   y="709.20001"
   class="st3"
   width="17.700001"
   height="17.700001"
   id="rect25" />
		</g>
		<g
   id="g57">
			<g
   id="g55">
				<line
   class="st0"
   x1="990.59998"
   y1="316.39999"
   x2="793.20001"
   y2="246.5"
   id="line29" />
				<line
   class="st0"
   x1="990.59998"
   y1="316.39999"
   x2="1102.8"
   y2="595.79999"
   id="line31" />
				<polyline
   class="st0"
   points="990.6,316.4 848.7,579.6 1102.8,595.8     "
   id="polyline33" />
				<polygon
   class="st0"
   points="962,630.3 979.2,474.3 1102.8,595.8 "
   id="polygon35" />
				<line
   class="st5"
   x1="708"
   y1="246.5"
   x2="793.20001"
   y2="246.5"
   id="line37" />
				<polyline
   class="st5"
   points="848.7,717.8 848.7,579.6 729,758.4 728.2,380.9 849.9,446.1 728.2,380.9 848.7,354.8 708,246.5       648.5,357.1 708,246.5 753,133.8 793.2,246.5 848.7,354.8 793.2,246.5 648.5,357.1 728.2,380.9 848.7,354.8 848.7,579.6       729,611.5 648.5,572.9 648.5,457.5 731,484.7 849.9,446.1     "
   id="polyline39" />
				<path
   class="st5"
   d="m 728.2,380.9 -40.6,37.9 -37.8,-59.5 c -0.4,-0.6 -1.3,-0.3 -1.3,0.4 v 97.9 l 39.1,-38.7 40.6,-38"
   id="path41" />
				<polyline
   class="st0"
   points="848.7,354.8 848.7,354.8 982.1,474.3 848.7,579.6     "
   id="polyline43" />
				<polygon
   class="st0"
   points="729,758.4 541.3,663.8 648.5,569.3 "
   id="polygon45" />
				<polyline
   class="st0"
   points="729,758.4 848.7,717.8 962,630.3 848.7,579.6     "
   id="polyline47" />
				<polyline
   class="st0"
   points="594.3,455.8 407.8,439.2 648.5,357.1     "
   id="polyline49" />
				<polyline
   class="st0"
   points="541.3,665.6 407.8,439.2 648.5,572.9 597.6,456.1 594.3,455.8     "
   id="polyline51" />
				<line
   class="st0"
   x1="597.59998"
   y1="456.10001"
   x2="647.20001"
   y2="357.60001"
   id="line53" />
			</g>
		</g>
		<g
   id="g61">
			<rect
   x="723"
   y="604.29999"
   class="st3"
   width="11.7"
   height="11.7"
   id="rect59" />
		</g>
		<g
   id="g67">
			<rect
   x="722.5"
   y="478.39999"
   class="st3"
   width="12.7"
   height="12.7"
   id="rect63" />
			<path
   class="st3"
   d="m 734.7,478.9 v 11.7 H 723 v -11.7 h 11.7 m 1,-1 h -1 -11.7 -1 v 1 11.7 1 h 1 11.7 1 v -1 -11.7 z"
   id="path65" />
		</g>
		<g
   id="g71">
			<rect
   x="719.29999"
   y="371"
   class="st3"
   width="19.200001"
   height="19.200001"
   id="rect69" />
		</g>
		<g
   id="g75">
			<rect
   x="744.29999"
   y="273.5"
   class="st3"
   width="11.7"
   height="11.7"
   id="rect73" />
		</g>
		<g
   id="g79">
			<rect
   x="703"
   y="241.60001"
   class="st3"
   width="11.7"
   height="11.7"
   id="rect77" />
		</g>
		<g
   id="g83">
			<rect
   x="783.40002"
   y="237.8"
   class="st3"
   width="19.200001"
   height="19.200001"
   id="rect81" />
		</g>
		<g
   id="g87">
			<rect
   x="746.59998"
   y="127.4"
   class="st3"
   width="12.8"
   height="12.8"
   id="rect85" />
		</g>
		<g
   id="g91">
			<rect
   x="591.59998"
   y="450.10001"
   class="st3"
   width="11.7"
   height="11.7"
   id="rect89" />
		</g>
		<g
   id="g95">
			<rect
   x="402.39999"
   y="434"
   class="st3"
   width="11.7"
   height="11.7"
   id="rect93" />
		</g>
		<g
   id="g99">
			<rect
   x="956.40002"
   y="749.59998"
   class="st3"
   width="11.7"
   height="11.7"
   id="rect97" />
		</g>
		<g
   id="g103">
			<rect
   x="637.29999"
   y="561"
   class="st3"
   width="18.200001"
   height="18.200001"
   id="rect101" />
		</g>
		<g
   id="g107">
			<rect
   x="1096.9"
   y="589.90002"
   class="st3"
   width="11.7"
   height="11.7"
   id="rect105" />
		</g>
		<g
   id="g111">
			<rect
   x="535.5"
   y="658"
   class="st3"
   width="11.7"
   height="11.7"
   id="rect109" />
		</g>
		<g
   id="g115">
			<rect
   x="956.09998"
   y="624.40002"
   class="st3"
   width="11.7"
   height="11.7"
   id="rect113" />
		</g>
		<g
   id="g119">
			<rect
   x="842.79999"
   y="712"
   class="st3"
   width="11.7"
   height="11.7"
   id="rect117" />
		</g>
		<g
   id="g123">
			<rect
   x="969.59998"
   y="467.60001"
   class="st3"
   width="18.799999"
   height="18.799999"
   id="rect121" />
		</g>
		<g
   id="g127">
			<rect
   x="986.70001"
   y="312.60001"
   class="st3"
   width="7.6999998"
   height="7.6999998"
   id="rect125" />
		</g>
		<g
   id="g131">
			<rect
   x="841.79999"
   y="349.29999"
   class="st3"
   width="11.7"
   height="11.7"
   id="rect129" />
		</g>
		<g
   id="g135">
			<rect
   x="841.79999"
   y="440.29999"
   class="st3"
   width="11.7"
   height="11.7"
   id="rect133" />
		</g>
		<g
   id="g139">
			<rect
   x="841.79999"
   y="572.70001"
   class="st3"
   width="11.7"
   height="11.7"
   id="rect137" />
		</g>
		<g
   id="g143">
			<rect
   x="642.59998"
   y="351.29999"
   class="st3"
   width="11.7"
   height="11.7"
   id="rect141" />
		</g>
		<g
   id="g147">
			<rect
   x="642.59998"
   y="450.70001"
   class="st3"
   width="11.7"
   height="11.7"
   id="rect145" />
		</g>
		<g
   id="g151">
			<rect
   x="681.79999"
   y="412.89999"
   class="st3"
   width="11.7"
   height="11.7"
   id="rect149" />
		</g>
	</g>
	<g
   id="g157">
		<rect
   x="720.90002"
   y="749.40002"
   class="st3"
   width="17.700001"
   height="17.700001"
   id="rect155" />
	</g>
</g>
</svg>
