<?xml version="1.0" encoding="UTF-8" standalone="no"?>
<!-- Generator: Adobe Illustrator 27.2.0, SVG Export Plug-In . SVG Version: 6.00 Build 0)  -->

<svg
   version="1.1"
   x="0px"
   y="0px"
   viewBox="0 0 908 563"
   xml:space="preserve"
   id="svg166"
   sodipodi:docname="LDW-Data-Icons-Transparent_8Crop.svg"
   width="908"
   height="563"
   inkscape:version="1.2.2 (1:1.2.2+202212051552+b0a8486541)"
   xmlns:inkscape="http://www.inkscape.org/namespaces/inkscape"
   xmlns:sodipodi="http://sodipodi.sourceforge.net/DTD/sodipodi-0.dtd"
   xmlns="http://www.w3.org/2000/svg"
   xmlns:svg="http://www.w3.org/2000/svg"><defs
   id="defs170" /><sodipodi:namedview
   id="namedview168"
   pagecolor="#505050"
   bordercolor="#ffffff"
   borderopacity="1"
   inkscape:showpageshadow="0"
   inkscape:pageopacity="0"
   inkscape:pagecheckerboard="1"
   inkscape:deskcolor="#505050"
   showgrid="false"
   inkscape:zoom="0.90972222"
   inkscape:cx="616.12214"
   inkscape:cy="450.1374"
   inkscape:window-width="2560"
   inkscape:window-height="1016"
   inkscape:window-x="0"
   inkscape:window-y="27"
   inkscape:window-maximized="1"
   inkscape:current-layer="svg166" />
<style
   type="text/css"
   id="style2">
	.st0{display:none;}
	.st1{display:inline;fill:#1C2434;}
	.st2{fill:none;stroke:#FFFFFF;stroke-width:2.5;stroke-miterlimit:10;}
	.st3{fill:none;stroke:#FFFFFF;stroke-width:1.5;stroke-miterlimit:10;}
	.st4{fill:#FFFFFF;}
	.st5{fill:#00C8BA;}
	.st6{fill:none;stroke:#00C8BA;stroke-width:4;stroke-miterlimit:10;}
	.st7{fill:none;stroke:#00C8BA;stroke-width:2.9363;stroke-miterlimit:10;}
	.st8{fill:#FFF170;}
	.st9{fill:#FF89FE;}
	.st10{fill:none;stroke:#FFFFFF;stroke-width:1.75;stroke-miterlimit:10;}
	.st11{fill:none;stroke:#FFFFFF;stroke-width:2;stroke-miterlimit:10;}
	.st12{fill:none;stroke:#00C8BA;stroke-width:3.5;stroke-miterlimit:10;}
	.st13{fill:#1C2434;stroke:#00C8BA;stroke-width:4;stroke-miterlimit:10;}
	.st14{opacity:0.5;}
	.st15{fill:none;stroke:#00C8BA;stroke-width:2.772;stroke-miterlimit:10;}
	.st16{fill:none;stroke:#5BB9BE;stroke-width:2;stroke-miterlimit:10;}
	.st17{fill:none;stroke:#00C8BA;stroke-width:2;stroke-miterlimit:10;}
	.st18{fill:#1B2433;stroke:#00C8BA;stroke-miterlimit:10;}
	.st19{fill:none;stroke:#00C8BA;stroke-width:2.047;stroke-miterlimit:10;}
	.st20{fill-rule:evenodd;clip-rule:evenodd;fill:none;stroke:#00C8BA;stroke-width:2;stroke-miterlimit:10;}
	.st21{fill-rule:evenodd;clip-rule:evenodd;fill:none;stroke:#00C8BA;stroke-width:4;stroke-miterlimit:10;}
	.st22{fill:none;stroke:#FFFFFF;stroke-width:2.0649;stroke-miterlimit:10;}
	.st23{fill:none;stroke:#FFFFFF;stroke-width:2.8504;stroke-miterlimit:10;}
	.st24{enable-background:new    ;}
	.st25{fill:none;stroke:#00C8BA;stroke-width:1.8355;stroke-miterlimit:10;}
	.st26{fill:none;stroke:#00C8BA;stroke-width:4.6008;stroke-miterlimit:10;}
	.st27{fill:none;stroke:#00C8BA;stroke-width:4;stroke-linecap:round;stroke-miterlimit:10;}
</style>
<g
   id="Background"
   class="st0">
	<rect
   x="-0.40000001"
   class="st1"
   width="1441.3"
   height="900"
   id="rect4"
   y="0" />
</g>
<g
   id="Artwork"
   transform="translate(-269.60001,-142.3898)">
	<polyline
   class="st2"
   points="766,653.3 987.5,504.9 999.1,607.4  "
   id="polyline7" />
	<polyline
   class="st2"
   points="496.1,626.6 462.5,608.9 496.1,529.7  "
   id="polyline9" />
	<polyline
   class="st2"
   points="619.4,664 554.1,641 525.5,643.9  "
   id="polyline11" />
	<polyline
   class="st2"
   points="515.5,399.1 329,382.5 688.8,266.3  "
   id="polyline13" />
	<polyline
   class="st2"
   points="546.5,500.5 518.8,399.4 515.5,399.1  "
   id="polyline15" />
	<polyline
   class="st2"
   points="462.5,608.9 329,382.5 546.5,500.5  "
   id="polyline17" />
	<line
   class="st3"
   x1="518.79999"
   y1="399.39999"
   x2="677.79999"
   y2="272"
   id="line19" />
	<g
   id="g53">
		<g
   id="g51">
			<g
   id="g49">
				<g
   id="g21">
				</g>
				<g
   id="g47">
					<path
   class="st6"
   d="m 810.9,477.4 c 0,0 -56.2,115.4 -149.3,113.5 0,0 -5.6,-1.9 -12.4,-19.7"
   id="path23" />
					<path
   class="st6"
   d="m 659.7,589.6 c 0,0 58.4,67.5 151.8,-51 20.5,-26 36.2,-55.5 45.4,-87.3 0.4,-1.2 0.7,-2.5 1.1,-3.8"
   id="path25" />
					<line
   class="st6"
   x1="524.79999"
   y1="547.70001"
   x2="524.79999"
   y2="638.59998"
   id="line27" />
					<polyline
   class="st6"
   points="496.1,529.7 524.8,547.7 979,284.6      "
   id="polyline29" />
					<path
   class="st6"
   d="m 917.7,320.1 c -0.2,-1.3 -0.4,-2.8 -0.7,-4.3 -4.5,-21.8 -17.5,-41.1 -36,-53.5"
   id="path31" />
					<path
   class="st6"
   d="m 815.8,318.1 c 0,0 8.5,10.3 12.1,19.4 l -159.4,92.3 c 87.8,-171 172,-99.7 172,-99.7 0,0 11.9,10.8 17.5,24.6"
   id="path33" />
					<path
   class="st6"
   d="m 917.5,427.9 c 0.1,0 0.1,0 0,0 1.1,-4.1 2.1,-8.2 2.8,-12.3 l 0.4,-1.9"
   id="path35" />
					<path
   class="st6"
   d="m 610.2,655.2 c 0,0 88.9,107.9 235.9,-85.1"
   id="path37" />
					<path
   class="st6"
   d="M 846.1,570 C 878.3,527.7 903,479.6 917.5,427.9"
   id="path39" />
					<path
   class="st6"
   d="m 881,262.3 c -8.9,-10.1 -23.7,-17.3 -33.4,-21.4 -82.5,-34.8 -195,18.9 -259.9,138 -22.7,41.6 -36.4,83.3 -41.2,121.6 l -50.4,29.2 v 97 L 525.6,643.9 979,380 v -95.4 l -28.7,-18.1 -42.6,24.7"
   id="path41" />
					<path
   class="st6"
   d="m 583.4,611.5 c 7.8,20.6 19.8,38.5 36,52.5 0.6,0.5 -5.8,-2.2 -9.1,-4.1 -18.4,-10 -33,-24.2 -43.7,-41.6"
   id="path43" />
					<path
   class="st6"
   d="m 881,262.3 c -78.6,-42.9 -201,17.2 -265.5,135.5 -23,42.1 -36.7,84 -41.2,122.5"
   id="path45" />
				</g>
			</g>
		</g>
	</g>
	<line
   class="st6"
   x1="524.79999"
   y1="547.70001"
   x2="546.5"
   y2="500.5"
   id="line55" />
	<line
   class="st6"
   x1="580.59998"
   y1="483.29999"
   x2="608.09998"
   y2="345.60001"
   id="line57" />
	<line
   class="st6"
   x1="767"
   y1="259.10001"
   x2="688.79999"
   y2="266.29999"
   id="line59" />
	<line
   class="st6"
   x1="979"
   y1="284.60001"
   x2="908.5"
   y2="291.5"
   id="line61" />
	<line
   class="st6"
   x1="848.59998"
   y1="250.7"
   x2="766.79999"
   y2="232.7"
   id="line63" />
	<line
   class="st6"
   x1="574.29999"
   y1="520.29999"
   x2="546.5"
   y2="500.5"
   id="line65" />
	<line
   class="st6"
   x1="644.29999"
   y1="353.5"
   x2="556.29999"
   y2="455.10001"
   id="line67" />
	<line
   class="st6"
   x1="688.79999"
   y1="266.29999"
   x2="653.70001"
   y2="341.89999"
   id="line69" />
	<polyline
   class="st2"
   points="762.3,653.1 1127.7,584.2 987.5,504.9  "
   id="polyline71" />
	<polyline
   class="st2"
   points="987.5,504.9 1127.7,584.2 980,285.4  "
   id="polyline73" />
	<polyline
   class="st2"
   points="980,285.4 1046.9,150.5 987.5,504.9  "
   id="polyline75" />
	<g
   id="g79">
		<rect
   x="515"
   y="393.39999"
   class="st4"
   width="9.8000002"
   height="9.8000002"
   id="rect77" />
	</g>
	<g
   id="g83">
		<rect
   x="320.79999"
   y="374.29999"
   class="st4"
   width="16.299999"
   height="16.299999"
   id="rect81" />
	</g>
	<g
   id="g87">
		<rect
   x="981.70001"
   y="496.5"
   class="st4"
   width="16.299999"
   height="16.299999"
   id="rect85" />
	</g>
	<g
   id="g91">
		<rect
   x="678.09998"
   y="260.20001"
   class="st5"
   width="16.299999"
   height="16.299999"
   id="rect89" />
	</g>
	<g
   id="g95">
		<rect
   x="758.90002"
   y="648.40002"
   class="st5"
   width="16.299999"
   height="16.299999"
   id="rect93" />
	</g>
	<g
   id="g99">
		<rect
   x="574.20001"
   y="470.79999"
   class="st5"
   width="16.299999"
   height="16.299999"
   id="rect97" />
	</g>
	<g
   id="g103">
		<rect
   x="798.79999"
   y="348.20001"
   class="st5"
   width="9.6999998"
   height="9.6999998"
   id="rect101" />
	</g>
	<g
   id="g107">
		<rect
   x="852"
   y="446.60001"
   class="st5"
   width="9.6999998"
   height="9.6999998"
   id="rect105" />
	</g>
	<g
   id="g111">
		<rect
   x="972.09998"
   y="278.70001"
   class="st5"
   width="12.8"
   height="12.8"
   id="rect109" />
	</g>
	<g
   id="g115">
		<rect
   x="521.40002"
   y="636.70001"
   class="st5"
   width="9.6999998"
   height="9.6999998"
   id="rect113" />
	</g>
	<g
   id="g119">
		<rect
   x="1008.3"
   y="347.60001"
   class="st4"
   width="9.5"
   height="9.5"
   id="rect117" />
	</g>
	<g
   id="g123">
		<rect
   x="1043.4"
   y="143"
   class="st4"
   width="9.5"
   height="9.5"
   id="rect121" />
	</g>
	<g
   id="g127">
		<rect
   x="1122.9"
   y="579.40002"
   class="st4"
   width="9.5"
   height="9.5"
   id="rect125" />
	</g>
	<g
   id="g131">
		<rect
   x="994.40002"
   y="602.59998"
   class="st4"
   width="9.5"
   height="9.5"
   id="rect129" />
	</g>
	<g
   id="g135">
		<rect
   x="549.29999"
   y="636.20001"
   class="st4"
   width="9.5"
   height="9.5"
   id="rect133" />
	</g>
	<g
   id="g139">
		<rect
   x="1091.5"
   y="366.10001"
   class="st4"
   width="12.4"
   height="12.4"
   id="rect137" />
	</g>
	<g
   id="g143">
		<rect
   x="1164.5"
   y="241"
   class="st9"
   width="12.4"
   height="12.4"
   id="rect141" />
	</g>
	<g
   id="g147">
		<rect
   x="444.39999"
   y="692.09998"
   class="st9"
   width="12.4"
   height="12.4"
   id="rect145" />
	</g>
	<g
   id="g151">
		<rect
   x="1085"
   y="694.09998"
   class="st5"
   width="7.8000002"
   height="7.8000002"
   id="rect149" />
	</g>
	<g
   id="g155">
		<rect
   x="551.40002"
   y="224.5"
   class="st5"
   width="7.8000002"
   height="7.8000002"
   id="rect153" />
	</g>
	<g
   id="g159">
		<rect
   x="269.60001"
   y="292"
   class="st4"
   width="12.4"
   height="12.4"
   id="rect157" />
	</g>
	<g
   id="g163">
		<rect
   x="1135.6"
   y="473.60001"
   class="st4"
   width="12.4"
   height="12.4"
   id="rect161" />
	</g>
</g>
</svg>
