<?xml version="1.0" encoding="utf-8"?>
<!-- Generator: Adobe Illustrator 27.2.0, SVG Export Plug-In . SVG Version: 6.00 Build 0)  -->
<svg version="1.1" xmlns="http://www.w3.org/2000/svg" xmlns:xlink="http://www.w3.org/1999/xlink" x="0px" y="0px" width="100%" height="100%"
	 viewBox="320 150 900 562" style="enable-background:new 0 0 1440 900;" xml:space="preserve">
<style type="text/css">
	.st0{display:none;}
	.st1{display:inline;fill:#1C2434;}
	.st2{fill:none;stroke:#FFFFFF;stroke-width:2.5;stroke-miterlimit:10;}
	.st3{fill:none;stroke:#FFFFFF;stroke-width:1.5;stroke-miterlimit:10;}
	.st4{fill:#FFFFFF;}
	.st5{fill:#00C8BA;}
	.st6{fill:none;stroke:#00C8BA;stroke-width:4;stroke-miterlimit:10;}
	.st7{fill:none;stroke:#00C8BA;stroke-width:2.9363;stroke-miterlimit:10;}
	.st8{fill:#FFF170;}
	.st9{fill:#FF89FE;}
	.st10{fill:none;stroke:#FFFFFF;stroke-width:1.75;stroke-miterlimit:10;}
	.st11{fill:none;stroke:#FFFFFF;stroke-width:2;stroke-miterlimit:10;}
	.st12{fill:none;stroke:#00C8BA;stroke-width:3.5;stroke-miterlimit:10;}
	.st13{fill:#1C2434;stroke:#00C8BA;stroke-width:4;stroke-miterlimit:10;}
	.st14{opacity:0.5;}
	.st15{fill:none;stroke:#00C8BA;stroke-width:2.772;stroke-miterlimit:10;}
	.st16{fill:none;stroke:#5BB9BE;stroke-width:2;stroke-miterlimit:10;}
	.st17{fill:none;stroke:#00C8BA;stroke-width:2;stroke-miterlimit:10;}
	.st18{fill:#1B2433;stroke:#00C8BA;stroke-miterlimit:10;}
	.st19{fill:none;stroke:#00C8BA;stroke-width:2.047;stroke-miterlimit:10;}
	.st20{fill-rule:evenodd;clip-rule:evenodd;fill:none;stroke:#00C8BA;stroke-width:2;stroke-miterlimit:10;}
	.st21{fill-rule:evenodd;clip-rule:evenodd;fill:none;stroke:#00C8BA;stroke-width:4;stroke-miterlimit:10;}
	.st22{fill:none;stroke:#FFFFFF;stroke-width:2.0649;stroke-miterlimit:10;}
	.st23{fill:none;stroke:#FFFFFF;stroke-width:2.8504;stroke-miterlimit:10;}
	.st24{enable-background:new    ;}
	.st25{fill:none;stroke:#00C8BA;stroke-width:1.8355;stroke-miterlimit:10;}
	.st26{fill:none;stroke:#00C8BA;stroke-width:4.6008;stroke-miterlimit:10;}
	.st27{fill:none;stroke:#00C8BA;stroke-width:4;stroke-linecap:round;stroke-miterlimit:10;}
</style>
<g id="Background" class="st0">
	<rect x="-0.4" class="st1" width="1441.3" height="900"/>
</g>
<g id="Artwork">
	<polyline class="st2" points="766,653.3 987.5,504.9 999.1,607.4 	"/>
	<polyline class="st2" points="496.1,626.6 462.5,608.9 496.1,529.7 	"/>
	<polyline class="st2" points="619.4,664 554.1,641 525.5,643.9 	"/>
	<polyline class="st2" points="515.5,399.1 329,382.5 688.8,266.3 	"/>
	<polyline class="st2" points="546.5,500.5 518.8,399.4 515.5,399.1 	"/>
	<polyline class="st2" points="462.5,608.9 329,382.5 546.5,500.5 	"/>
	<line class="st3" x1="518.8" y1="399.4" x2="677.8" y2="272"/>
	<g>
		<g>
			<g>
				<g>
				</g>
				<g>
					<path class="st6" d="M810.9,477.4c0,0-56.2,115.4-149.3,113.5c0,0-5.6-1.9-12.4-19.7"/>
					<path class="st6" d="M659.7,589.6c0,0,58.4,67.5,151.8-51c20.5-26,36.2-55.5,45.4-87.3c0.4-1.2,0.7-2.5,1.1-3.8"/>
					<line class="st6" x1="524.8" y1="547.7" x2="524.8" y2="638.6"/>
					<polyline class="st6" points="496.1,529.7 524.8,547.7 979,284.6 					"/>
					<path class="st6" d="M917.7,320.1c-0.2-1.3-0.4-2.8-0.7-4.3c-4.5-21.8-17.5-41.1-36-53.5"/>
					<path class="st6" d="M815.8,318.1c0,0,8.5,10.3,12.1,19.4l-159.4,92.3c87.8-171,172-99.7,172-99.7s11.9,10.8,17.5,24.6"/>
					<path class="st6" d="M917.5,427.9C917.6,427.9,917.6,427.9,917.5,427.9c1.1-4.1,2.1-8.2,2.8-12.3l0.4-1.9"/>
					<path class="st6" d="M610.2,655.2c0,0,88.9,107.9,235.9-85.1"/>
					<path class="st6" d="M846.1,570c32.2-42.3,56.9-90.4,71.4-142.1"/>
					<path class="st6" d="M881,262.3c-8.9-10.1-23.7-17.3-33.4-21.4c-82.5-34.8-195,18.9-259.9,138c-22.7,41.6-36.4,83.3-41.2,121.6
						l-50.4,29.2v97l29.5,17.2L979,380v-95.4l-28.7-18.1l-42.6,24.7"/>
					<path class="st6" d="M583.4,611.5c7.8,20.6,19.8,38.5,36,52.5c0.6,0.5-5.8-2.2-9.1-4.1c-18.4-10-33-24.2-43.7-41.6"/>
					<path class="st6" d="M881,262.3c-78.6-42.9-201,17.2-265.5,135.5c-23,42.1-36.7,84-41.2,122.5"/>
				</g>
			</g>
		</g>
	</g>
	<line class="st6" x1="524.8" y1="547.7" x2="546.5" y2="500.5"/>
	<line class="st6" x1="580.6" y1="483.3" x2="608.1" y2="345.6"/>
	<line class="st6" x1="767" y1="259.1" x2="688.8" y2="266.3"/>
	<line class="st6" x1="979" y1="284.6" x2="908.5" y2="291.5"/>
	<line class="st6" x1="848.6" y1="250.7" x2="766.8" y2="232.7"/>
	<line class="st6" x1="574.3" y1="520.3" x2="546.5" y2="500.5"/>
	<line class="st6" x1="644.3" y1="353.5" x2="556.3" y2="455.1"/>
	<line class="st6" x1="688.8" y1="266.3" x2="653.7" y2="341.9"/>
	<polyline class="st2" points="762.3,653.1 1127.7,584.2 987.5,504.9 	"/>
	<polyline class="st2" points="987.5,504.9 1127.7,584.2 980,285.4 	"/>
	<polyline class="st2" points="980,285.4 1046.9,150.5 987.5,504.9 	"/>
	<g>
		<rect x="515" y="393.4" class="st4" width="9.8" height="9.8"/>
	</g>
	<g>
		<rect x="320.8" y="374.3" class="st4" width="16.3" height="16.3"/>
	</g>
	<g>
		<rect x="981.7" y="496.5" class="st4" width="16.3" height="16.3"/>
	</g>
	<g>
		<rect x="678.1" y="260.2" class="st5" width="16.3" height="16.3"/>
	</g>
	<g>
		<rect x="758.9" y="648.4" class="st5" width="16.3" height="16.3"/>
	</g>
	<g>
		<rect x="574.2" y="470.8" class="st5" width="16.3" height="16.3"/>
	</g>
	<g>
		<rect x="798.8" y="348.2" class="st5" width="9.7" height="9.7"/>
	</g>
	<g>
		<rect x="852" y="446.6" class="st5" width="9.7" height="9.7"/>
	</g>
	<g>
		<rect x="972.1" y="278.7" class="st5" width="12.8" height="12.8"/>
	</g>
	<g>
		<rect x="521.4" y="636.7" class="st5" width="9.7" height="9.7"/>
	</g>
	<g>
		<rect x="1008.3" y="347.6" class="st4" width="9.5" height="9.5"/>
	</g>
	<g>
		<rect x="1043.4" y="143" class="st4" width="9.5" height="9.5"/>
	</g>
	<g>
		<rect x="1122.9" y="579.4" class="st4" width="9.5" height="9.5"/>
	</g>
	<g>
		<rect x="994.4" y="602.6" class="st4" width="9.5" height="9.5"/>
	</g>
	<g>
		<rect x="549.3" y="636.2" class="st4" width="9.5" height="9.5"/>
	</g>
	<g>
		<rect x="1091.5" y="366.1" class="st4" width="12.4" height="12.4"/>
	</g>
	<g>
		<rect x="1164.5" y="241" class="st9" width="12.4" height="12.4"/>
	</g>
	<g>
		<rect x="444.4" y="692.1" class="st9" width="12.4" height="12.4"/>
	</g>
	<g>
		<rect x="1085" y="694.1" class="st5" width="7.8" height="7.8"/>
	</g>
	<g>
		<rect x="551.4" y="224.5" class="st5" width="7.8" height="7.8"/>
	</g>
	<g>
		<rect x="269.6" y="292" class="st4" width="12.4" height="12.4"/>
	</g>
	<g>
		<rect x="1135.6" y="473.6" class="st4" width="12.4" height="12.4"/>
	</g>
</g>
</svg>
