<?xml version="1.0" encoding="utf-8"?>
<!-- Generator: Adobe Illustrator 27.2.0, SVG Export Plug-In . SVG Version: 6.00 Build 0)  -->
<svg version="1.1" xmlns="http://www.w3.org/2000/svg" xmlns:xlink="http://www.w3.org/1999/xlink" x="0px" y="0px"
	 viewBox="320 150 900 562" style="enable-background:new 0 0 1440 900;" xml:space="preserve">
<style type="text/css">
	.st0{display:none;}
	.st1{display:inline;fill:#1C2434;}
	.st2{fill:none;stroke:#FFFFFF;stroke-width:2.5;stroke-miterlimit:10;}
	.st3{fill:none;stroke:#FFFFFF;stroke-width:1.5;stroke-miterlimit:10;}
	.st4{fill:#FFFFFF;}
	.st5{fill:#00C8BA;}
	.st6{fill:none;stroke:#00C8BA;stroke-width:4;stroke-miterlimit:10;}
	.st7{fill:none;stroke:#00C8BA;stroke-width:2.9363;stroke-miterlimit:10;}
	.st8{fill:#FFF170;}
	.st9{fill:#FF89FE;}
	.st10{fill:none;stroke:#FFFFFF;stroke-width:1.75;stroke-miterlimit:10;}
	.st11{fill:none;stroke:#FFFFFF;stroke-width:2;stroke-miterlimit:10;}
	.st12{fill:none;stroke:#00C8BA;stroke-width:3.5;stroke-miterlimit:10;}
	.st13{fill:#1C2434;stroke:#00C8BA;stroke-width:4;stroke-miterlimit:10;}
	.st14{opacity:0.5;}
	.st15{fill:none;stroke:#00C8BA;stroke-width:2.772;stroke-miterlimit:10;}
	.st16{fill:none;stroke:#5BB9BE;stroke-width:2;stroke-miterlimit:10;}
	.st17{fill:none;stroke:#00C8BA;stroke-width:2;stroke-miterlimit:10;}
	.st18{fill:#1B2433;stroke:#00C8BA;stroke-miterlimit:10;}
	.st19{fill:none;stroke:#00C8BA;stroke-width:2.047;stroke-miterlimit:10;}
	.st20{fill-rule:evenodd;clip-rule:evenodd;fill:none;stroke:#00C8BA;stroke-width:2;stroke-miterlimit:10;}
	.st21{fill-rule:evenodd;clip-rule:evenodd;fill:none;stroke:#00C8BA;stroke-width:4;stroke-miterlimit:10;}
	.st22{fill:none;stroke:#FFFFFF;stroke-width:2.0649;stroke-miterlimit:10;}
	.st23{fill:none;stroke:#FFFFFF;stroke-width:2.8504;stroke-miterlimit:10;}
	.st24{enable-background:new    ;}
	.st25{fill:none;stroke:#00C8BA;stroke-width:1.8355;stroke-miterlimit:10;}
	.st26{fill:none;stroke:#00C8BA;stroke-width:4.6008;stroke-miterlimit:10;}
	.st27{fill:none;stroke:#00C8BA;stroke-width:4;stroke-linecap:round;stroke-miterlimit:10;}
</style>
<g id="Background" class="st0">
	<rect x="-0.4" class="st1" width="1441.3" height="900"/>
</g>
<g id="Artwork">
	<g>
		<g>
			<rect x="625.9" y="237.7" class="st4" width="10.4" height="10.4"/>
		</g>
		<g>
			<rect x="1115.8" y="416.2" class="st4" width="10.4" height="10.4"/>
		</g>
		<g>
			<rect x="378.4" y="582" class="st4" width="10.4" height="10.4"/>
		</g>
		<g>
			<rect x="868.5" y="168.1" class="st4" width="10.4" height="10.4"/>
		</g>
		<g>
			<rect x="552.2" y="291.3" class="st5" width="25.4" height="25.4"/>
		</g>
		<g>
			<rect x="1085.7" y="709.2" class="st5" width="17.7" height="17.7"/>
		</g>
		<g>
			<g>
				<line class="st2" x1="990.6" y1="316.4" x2="793.2" y2="246.5"/>
				<line class="st2" x1="990.6" y1="316.4" x2="1102.8" y2="595.8"/>
				<polyline class="st2" points="990.6,316.4 848.7,579.6 1102.8,595.8 				"/>
				<polygon class="st2" points="979.2,474.3 1102.8,595.8 962,630.3 				"/>
				<line class="st6" x1="708" y1="246.5" x2="793.2" y2="246.5"/>
				<polyline class="st6" points="848.7,717.8 848.7,579.6 729,758.4 728.2,380.9 849.9,446.1 728.2,380.9 848.7,354.8 708,246.5 
					648.5,357.1 708,246.5 753,133.8 793.2,246.5 848.7,354.8 793.2,246.5 648.5,357.1 728.2,380.9 848.7,354.8 848.7,579.6 
					729,611.5 648.5,572.9 648.5,457.5 731,484.7 849.9,446.1 				"/>
				<path class="st6" d="M728.2,380.9l-40.6,37.9l-37.8-59.5c-0.4-0.6-1.3-0.3-1.3,0.4v97.9l39.1-38.7L728.2,380.9"/>
				<polyline class="st2" points="848.7,354.8 848.7,354.8 982.1,474.3 848.7,579.6 				"/>
				<polygon class="st2" points="541.3,663.8 648.5,569.3 729,758.4 				"/>
				<polyline class="st2" points="729,758.4 848.7,717.8 962,630.3 848.7,579.6 				"/>
				<polyline class="st2" points="594.3,455.8 407.8,439.2 648.5,357.1 				"/>
				<polyline class="st2" points="541.3,665.6 407.8,439.2 648.5,572.9 597.6,456.1 594.3,455.8 				"/>
				<line class="st2" x1="597.6" y1="456.1" x2="647.2" y2="357.6"/>
			</g>
		</g>
		<g>
			<rect x="723" y="604.3" class="st5" width="11.7" height="11.7"/>
		</g>
		<g>
			<rect x="723" y="478.9" class="st5" width="11.7" height="11.7"/>
		</g>
		<g>
			<rect x="719.3" y="371" class="st5" width="19.2" height="19.2"/>
		</g>
		<g>
			<rect x="744.3" y="273.5" class="st5" width="11.7" height="11.7"/>
		</g>
		<g>
			<rect x="703" y="241.6" class="st5" width="11.7" height="11.7"/>
		</g>
		<g>
			<rect x="783.4" y="237.8" class="st5" width="19.2" height="19.2"/>
		</g>
		<g>
			<rect x="746.6" y="127.4" class="st5" width="12.8" height="12.8"/>
		</g>
		<g>
			<rect x="591.6" y="450.1" class="st4" width="11.7" height="11.7"/>
		</g>
		<g>
			<rect x="402.4" y="434" class="st4" width="11.7" height="11.7"/>
		</g>
		<g>
			<rect x="956.4" y="749.6" class="st8" width="11.7" height="11.7"/>
		</g>
		<g>
			<rect x="637.3" y="561" class="st5" width="18.2" height="18.2"/>
		</g>
		<g>
			<rect x="1096.9" y="589.9" class="st4" width="11.7" height="11.7"/>
		</g>
		<g>
			<rect x="535.5" y="658" class="st4" width="11.7" height="11.7"/>
		</g>
		<g>
			<rect x="956.1" y="624.4" class="st4" width="11.7" height="11.7"/>
		</g>
		<g>
			<rect x="842.8" y="712" class="st5" width="11.7" height="11.7"/>
		</g>
		<g>
			<rect x="969.6" y="467.6" class="st4" width="18.8" height="18.8"/>
		</g>
		<g>
			<rect x="986.7" y="312.6" class="st4" width="7.7" height="7.7"/>
		</g>
		<g>
			<rect x="841.8" y="349.3" class="st5" width="11.7" height="11.7"/>
		</g>
		<g>
			<rect x="841.8" y="440.3" class="st5" width="11.7" height="11.7"/>
		</g>
		<g>
			<rect x="841.8" y="572.7" class="st5" width="11.7" height="11.7"/>
		</g>
		<g>
			<rect x="642.6" y="351.3" class="st5" width="11.7" height="11.7"/>
		</g>
		<g>
			<rect x="642.6" y="450.7" class="st5" width="11.7" height="11.7"/>
		</g>
		<g>
			<rect x="681.8" y="412.9" class="st5" width="11.7" height="11.7"/>
		</g>
	</g>
	<g>
		<rect x="720.9" y="749.4" class="st5" width="17.7" height="17.7"/>
	</g>
</g>
</svg>
