<svg xmlns="http://www.w3.org/2000/svg" width="208" height="93" viewBox="0 0 208 93" preserveAspectRatio="xMinYMid" aria-hidden="true" focusable="false"><path d="M1,33.43C4.48,17.85,19.17,1,39.61,1c26,0,50.91,26.1,65,43.29C98.49,38.52,72.12,3,40,3,21.49,3,10.2,23.64,8.17,33.43H1M200,58.7h7C199.34,75.14,186.24,92,165.5,92c-26,0-48.51-29.88-60.74-47.52,7,8,30.75,45.48,60.42,45.48,18.64,0,30-20.53,34.82-31.25" fill="#d10074" fill-rule="evenodd"/><path d="M118.35,35.36h3.77V53.74h8.64v3.42H118.35V35.36M139,54.43c2.29,0,3.86-2,3.86-5.09s-1.57-5.1-3.86-5.1-3.87,2-3.87,5.1,1.57,5,3.87,5Zm-7.33-5.09c0-5,3-8.28,7.33-8.28s7.32,3.24,7.32,8.28-3,8.3-7.32,8.3S131.65,54.37,131.65,49.34Zm16.21-7.85h3.31v1.42a6.13,6.13,0,0,1,4.36-1.77c3.12,0,5.18,2,5.18,5.5V57.16H157.4V47.28c0-2-.92-3.09-2.64-3.09a3.56,3.56,0,0,0-3.59,3.52v9.45h-3.31V41.44m21.61,2.87c-2.33,0-3.74,1.8-3.74,5s1.41,5,3.74,5,3.45-1.67,3.45-5S171.89,44.31,169.47,44.31ZM173,55.78a5,5,0,0,1-4,1.72c-3.89,0-6.62-3.12-6.62-8.18s2.73-8.19,6.62-8.19a5,5,0,0,1,4,1.78V35.36h3.32v21.8H173Zm12.26-1.4c2.3,0,3.87-2,3.87-5.09s-1.57-5.1-3.87-5.1-3.86,2-3.86,5.1,1.52,5.09,3.81,5.09Zm-7.32-5.09c0-5,3-8.28,7.32-8.28s7.33,3.24,7.33,8.28-3,8.3-7.33,8.3S177.91,54.32,177.91,49.29Zm16.24-7.85h3.32v1.47a6.07,6.07,0,0,1,4.35-1.77c3.12,0,5.18,2,5.18,5.5V57.16h-3.31V47.28c0-2-.92-3.09-2.64-3.09a3.55,3.55,0,0,0-3.58,3.51v9.46h-3.32V41.44M1,35.36H4.53l8.34,14.23a11.18,11.18,0,0,1,1.07,2.78,18.78,18.78,0,0,1-.36-2.81V35.36h3.61v21.8H13.73L5.33,42.91a10.4,10.4,0,0,1-1.1-2.78,18.39,18.39,0,0,1,.37,2.78V57.16H1V35.36m28.13,12A3.49,3.49,0,0,0,25.79,44a3.73,3.73,0,0,0-3.55,3.36Zm-3,10.16c-4.35,0-7.51-3.27-7.51-8.43,0-4.79,3.07-8.12,7.08-8.12C29.93,41,33,44.4,33,50.12v.18H22.22a4.08,4.08,0,0,0,4.14,4A4.41,4.41,0,0,0,30.13,52l2.75,1.58a7.82,7.82,0,0,1-6.74,4Zm6.59-16.12h3.42l2.58,8.86a14.31,14.31,0,0,1,.49,2.41c.28-1.41.43-2.22.49-2.41L42,41.44h2.9l2.36,8.86c.09.32.25,1.09.49,2.41a13.38,13.38,0,0,1,.49-2.41l2.51-8.86h3.34L49.3,57.16H46.12l-2.3-8.67c-.06-.28-.22-1.06-.4-2.32-.19,1.35-.34,2.1-.4,2.32l-2.18,8.67H37.6L32.73,41.44m22.53-6.08h3.31v7.55a6.07,6.07,0,0,1,4.35-1.77c3.13,0,5.18,2,5.18,5.5V57.16H64.79V47.28c0-2-.92-3.09-2.64-3.09a3.55,3.55,0,0,0-3.58,3.51v9.46H55.26V35.36M73.52,52.28c0,1.24.93,2.07,2.49,2.07,2.66,0,3.65-1.32,3.65-4V49.1C76.16,50.24,73.52,49.81,73.52,52.28Zm6,3.43a5.66,5.66,0,0,1-4.2,1.64c-3.19,0-5.42-2.08-5.42-4.85,0-3.34,2.11-4.41,6.53-5.13,2-.34,3.18-.52,3.18-1.91,0-1-.92-1.7-2.72-1.7s-3,.8-3,2.25H70.61C71,42.49,73,41,77,41c4.29,0,5.79,1.51,5.79,4.7v7.86a7.94,7.94,0,0,0,.52,3.61h-3a1.66,1.66,0,0,1-.8-1.45Zm5.7-14.27h3.31v1.47a5.41,5.41,0,0,1,4-1.77,4.59,4.59,0,0,1,4.17,2.29,6.21,6.21,0,0,1,4.75-2.29c3,0,4.89,2,4.89,5.5V57.16H103V47.28c0-2-.83-3.09-2.42-3.09a3.38,3.38,0,0,0-3.23,3.52.62.62,0,0,0,0,.13v9.32H94.18V47.28c0-2-.82-3.09-2.42-3.09a3.4,3.4,0,0,0-3.26,3.53.49.49,0,0,0,0,.12v9.32H85.2V41.44" fill="#747678" /></svg>